<?xml version="1.0" standalone="no"?><!DOCTYPE svg PUBLIC "-//W3C//DTD SVG 1.1//EN" "http://www.w3.org/Graphics/SVG/1.1/DTD/svg11.dtd"><svg t="1650528743432" class="icon" viewBox="0 0 1024 1024" version="1.1" xmlns="http://www.w3.org/2000/svg" p-id="7383" width="200" height="200" data-spm-anchor-id="a313x.7781069.0.i5" xmlns:xlink="http://www.w3.org/1999/xlink"><defs><style type="text/css">@font-face { font-family: feedback-iconfont; src: url("//at.alicdn.com/t/font_1031158_u69w8yhxdu.woff2?t=1630033759944") format("woff2"), url("//at.alicdn.com/t/font_1031158_u69w8yhxdu.woff?t=1630033759944") format("woff"), url("//at.alicdn.com/t/font_1031158_u69w8yhxdu.ttf?t=1630033759944") format("truetype"); }
</style></defs><path d="M944.64 440.32C944.64 197.12 747.52 0 504.32 0S64 197.12 64 440.32c0 153.6 78.336 288.256 197.632 367.104L504.32 1013.76l242.688-206.336C865.792 728.576 944.64 593.408 944.64 440.32z" fill="#BD98FC" p-id="7384"></path><path d="M240 595.824m16 0l349.824 0q16 0 16 16l0 76.176q0 16-16 16l-349.824 0q-16 0-16-16l0-76.176q0-16 16-16Z" fill="#FFFFFF" p-id="7385"></path><path d="M601.432352 291.550054m-7.647543 14.054006l-124.983808 229.684614q-7.647544 14.054006-21.701549 6.406462l-83.972684-45.694074q-14.054006-7.647544-6.406462-21.701549l124.983808-229.684615q7.647544-14.054006 21.701549-6.406462l83.972684 45.694074q14.054006 7.647544 6.406462 21.70155Z" fill="#FFFFFF" p-id="7386"></path><path d="M580.48 244.224a16 16 0 0 1 22.624 0.224l164.672 168.048a16 16 0 0 1-0.224 22.624l-28 27.424a16 16 0 0 1-22.624-0.224L552.272 294.272a16 16 0 0 1 0.224-22.624l28-27.424z" fill="#FFFFFF" p-id="7387"></path><path d="M621.472 242.688m11.198204 11.428045l123.180247 125.7085q11.198204 11.428045-0.229841 22.62625l-51.369065 50.335928q-11.428045 11.198204-22.626249-0.229842l-123.180247-125.708499q-11.198204-11.428045 0.229841-22.62625l51.369065-50.335928q11.428045-11.198204 22.626249 0.229841Z" fill="#FFFFFF" p-id="7388"></path><path d="M550.752 253.232m-41.456509-67.78358a79.456 79.456 0 1 0 82.913018 135.56716 79.456 79.456 0 1 0-82.913018-135.56716Z" fill="#BD98FC" p-id="7389"></path><path d="M551.936 256.336m-8.873237-14.509918a17.008 17.008 0 1 0 17.746474 29.019836 17.008 17.008 0 1 0-17.746474-29.019836Z" fill="#FFFFFF" p-id="7390"></path><path d="M500.08 288.048a60.768 60.768 0 1 0 103.68-63.408 60.768 60.768 0 0 0-103.68 63.408z m24.896-15.216a31.6 31.6 0 1 0 53.92-32.96 31.6 31.6 0 0 0-53.92 32.96z" fill="#FFFFFF" p-id="7391"></path><path d="M333.088 512h176v96h-176z" fill="#FFFFFF" p-id="7392"></path><path d="M421.088 520m-73.436097-62.574197a96.48 96.48 0 1 0 146.872194 125.148394 96.48 96.48 0 1 0-146.872194-125.148394Z" fill="#BD98FC" p-id="7393"></path><path d="M423.616 523.152m-15.721453-13.397994a20.656 20.656 0 1 0 31.442906 26.795988 20.656 20.656 0 1 0-31.442906-26.795988Z" fill="#FFFFFF" p-id="7394"></path><path d="M375.76 579.312a73.792 73.792 0 1 0 95.712-112.32 73.792 73.792 0 0 0-95.712 112.32z m22.96-26.96a38.368 38.368 0 1 0 49.776-58.4 38.368 38.368 0 0 0-49.76 58.4z" fill="#FFFFFF" p-id="7395"></path></svg>